<svg width="520" height="118" viewBox="0 0 520 118" fill="none" xmlns="http://www.w3.org/2000/svg">
<g clip-path="url(#clip0_1_2)">
<path d="M58.7743 117.549C91.2345 117.549 117.549 91.2345 117.549 58.7743C117.549 26.3142 91.2345 0 58.7743 0C26.3142 0 0 26.3142 0 58.7743C0 91.2345 26.3142 117.549 58.7743 117.549Z" fill="#FFCD38"/>
<path d="M43.5756 36C39.8889 36.0832 36.7374 38.4975 34.121 43.2307C31.3738 48.5586 30.018 54.4811 30.0418 60.9983C30.0894 61.7832 30.1726 61.8546 30.3034 61.2243C31.4095 56.4315 32.563 52.6854 33.7642 49.9738C34.9416 47.2504 36.2498 45.0146 37.6769 43.2902C40.9592 39.4726 43.8016 38.8542 46.2158 41.4349C48.8559 44.4794 50.2593 49.6171 50.4258 56.824C50.2831 66.5165 49.0105 73.8423 46.6082 78.8253C43.5994 84.8906 40.5073 86.9123 37.3677 84.8668C33.0863 81.4536 30.7078 73.8899 30.2321 62.1995C30.0656 61.7951 29.911 62.0924 29.7921 63.0914C29.5661 64.3044 29.4115 65.6364 29.3164 67.0516C28.9596 73.4023 29.8039 78.7897 31.8376 83.2137C33.9188 87.4118 36.6898 89.5406 40.1505 89.612C43.8848 89.5525 47.2861 87.1145 50.3663 82.2742C53.4346 77.2198 55.4088 71.0595 56.2769 63.7693C56.598 56.0153 55.5515 49.4149 53.1492 43.9681C50.7231 38.7829 47.5477 36.1189 43.6351 35.9762" fill="white"/>
<path d="M70.9287 33.122C69.0139 29.9823 65.351 28.4482 59.9399 28.5433C53.9579 28.8287 48.1424 30.6126 42.5053 33.895C41.8512 34.3231 41.8274 34.4421 42.4339 34.2399C47.1434 32.8009 50.9609 31.9208 53.8984 31.6116C56.8478 31.2667 59.4285 31.2786 61.6405 31.6592C66.5878 32.5987 68.5501 34.7513 67.5155 38.1288C66.1954 41.9344 62.4492 45.7163 56.2888 49.4743C47.8213 54.1957 40.8403 56.7645 35.334 57.1689C28.5671 57.597 25.2848 55.932 25.4869 52.1859C26.3313 46.7628 31.683 40.9235 41.5658 34.6561C41.8274 34.3112 41.4944 34.335 40.5787 34.7275C39.4132 35.1437 38.1883 35.667 36.9038 36.2973C31.2311 39.1634 26.9735 42.5885 24.1668 46.5607C21.5743 50.4614 21.1104 53.9341 22.7754 56.9548C24.6901 60.1539 28.5077 61.8784 34.2399 62.1281C40.1505 62.2589 46.4774 60.8913 53.2205 57.9895C60.0945 54.386 65.2916 50.1879 68.7999 45.3833C72.0822 40.6857 72.7958 36.6065 70.9643 33.1458" fill="white"/>
<path d="M87.1026 55.3731C88.8627 52.1383 88.3632 48.2018 85.5685 43.5637C82.3218 38.5212 77.8739 34.3826 72.2131 31.1478C71.5114 30.791 71.4044 30.8267 71.8801 31.2548C75.4835 34.6086 78.1475 37.4866 79.8957 39.8651C81.6677 42.2555 82.9521 44.4913 83.7251 46.5963C85.3901 51.3534 84.4981 54.1244 81.0612 54.9093C77.1009 55.6704 71.9633 54.3146 65.6245 50.8658C57.3116 45.8947 51.5912 41.1257 48.4754 36.5708C44.7292 30.9218 44.527 27.247 47.8688 25.5464C52.9708 23.5484 60.701 25.2729 71.0714 30.7078C71.4995 30.7554 71.3211 30.4818 70.5124 29.8872C69.5729 29.0785 68.5026 28.2817 67.3133 27.4849C61.9973 24.0003 56.9072 22.0381 52.055 21.5861C47.3812 21.2888 44.1465 22.6208 42.3507 25.5821C40.5311 28.8406 40.9473 33.0149 43.5994 38.0931C46.4417 43.2783 50.7944 48.071 56.6694 52.4594C63.2222 56.6099 69.4659 59.0122 75.3765 59.6425C81.085 60.1301 84.9857 58.7149 87.055 55.3969" fill="white"/>
<path d="M75.9236 80.5022C79.6103 80.419 82.7618 78.0048 85.3782 73.2715C88.1254 67.9436 89.4812 62.0211 89.4574 55.5039C89.4098 54.719 89.3266 54.6476 89.1957 55.2779C88.0897 60.0707 86.9361 63.8168 85.735 66.5284C84.5576 69.2518 83.2494 71.4876 81.8223 73.212C78.5399 77.0296 75.6976 77.648 73.2834 75.0673C70.6432 72.0228 69.2399 66.8851 69.0734 59.6782C69.2161 49.9857 70.4886 42.6599 72.8909 37.6769C75.8998 31.6116 78.9919 29.5899 82.1315 31.6354C86.4129 35.0486 88.7914 42.6123 89.2671 54.3028C89.4336 54.7071 89.5882 54.4098 89.7071 53.4108C89.9331 52.1978 90.0877 50.8658 90.1828 49.4506C90.5396 43.0999 89.6952 37.7125 87.6616 33.2885C85.5804 29.0904 82.8094 26.9616 79.3486 26.8902C75.6144 26.9497 72.2131 29.3877 69.1329 34.228C66.0646 39.2824 64.0904 45.4427 63.2222 52.7329C62.9011 60.4869 63.9477 67.0873 66.35 72.5341C68.7761 77.7193 71.9514 80.3833 75.8641 80.526" fill="white"/>
<path d="M32.3965 61.1291C30.6364 64.3639 31.1359 68.3004 33.9307 72.9385C37.1774 77.981 41.6252 82.1196 47.2861 85.3544C47.9878 85.7112 48.0948 85.6755 47.6191 85.2474C44.0156 81.8937 41.3517 79.0156 39.6035 76.6371C37.8315 74.2467 36.5471 72.0109 35.774 69.9059C34.1091 65.1488 35.001 62.3778 38.438 61.5929C42.3982 60.8318 47.5359 62.1876 53.8746 65.6364C62.1876 70.6075 67.9079 75.3765 71.0238 79.9314C74.77 85.5804 74.9721 89.2552 71.6303 90.9558C66.5284 92.9538 58.7982 91.2294 48.4278 85.7944C47.9997 85.7469 48.1781 86.0204 48.9868 86.615C49.9263 87.4237 50.9966 88.2205 52.1859 89.0173C57.5019 92.5019 62.5919 94.4642 67.4441 94.9161C72.1179 95.2134 75.3527 93.8814 77.1485 90.9201C78.9681 87.6616 78.5518 83.4873 75.8998 78.4091C73.0574 73.2239 68.7047 68.4312 62.8298 64.0428C56.2769 59.8923 50.0333 57.49 44.1227 56.8597C38.4142 56.3721 34.5134 57.7873 32.4441 61.1053" fill="white"/>
<path d="M48.5705 83.3802C50.4852 86.5199 54.1482 88.054 59.5593 87.9589C65.5413 87.6735 71.3568 85.8896 76.9939 82.6072C77.648 82.1791 77.6718 82.0601 77.0653 82.2623C72.3558 83.7013 68.5382 84.5814 65.6008 84.8906C62.6514 85.2355 60.0707 85.2236 57.8587 84.843C52.9113 83.9035 50.9491 81.7509 51.9837 78.3734C53.3038 74.5678 57.05 70.7859 63.2103 67.0279C71.6779 62.3065 78.6589 59.7377 84.1652 59.3333C90.9321 58.9052 94.2144 60.5702 94.0122 64.3163C93.1917 69.7275 87.84 75.5668 77.9453 81.8342C77.6837 82.1791 78.0167 82.1553 78.9324 81.7628C80.0979 81.3466 81.3228 80.8233 82.6072 80.193C88.28 77.3269 92.5376 73.9018 95.3442 69.9297C97.9368 66.0289 98.4006 62.5562 96.7357 59.5355C94.8209 56.3364 91.0034 54.612 85.2831 54.3622C79.3724 54.2314 73.0455 55.5991 66.3024 58.5009C59.4285 62.1043 54.2314 66.3024 50.7231 71.107C47.4407 75.8046 46.7272 79.8838 48.5586 83.3446" fill="white"/>
<path d="M147.997 73.2669C145.046 73.3311 144.533 72.882 144.533 69.9308C144.533 65.6325 144.469 57.998 144.405 53.7638C144.405 50.4919 144.34 47.2842 144.34 44.0123C144.276 42.9858 144.34 41.8952 144.34 40.8687V40.6762C144.34 38.2383 144.34 38.0459 146.778 38.0459C150.628 38.0459 154.541 38.0459 158.326 38.5591C163.972 39.329 167.051 43.1783 168.719 48.3107C170.002 52.3524 169.938 59.8585 168.912 63.9003C167.693 68.3911 164.742 70.8932 160.251 71.7913C156.209 72.6254 152.103 73.2027 147.997 73.2669ZM146.265 71.4064C147.484 71.4064 148.446 71.4706 149.409 71.4064C151.077 71.2139 151.077 71.1498 151.077 69.5459L151.013 53.3147C150.948 49.2088 150.948 45.1029 150.948 40.997C150.948 40.4196 151.077 39.7781 150.179 39.7781C148.895 39.7139 147.612 39.7781 146.265 39.7781V71.4064ZM152.809 71.3423C155.568 70.829 158.134 70.4441 160.7 69.8667C164.1 69.0968 166.217 66.9156 167.115 63.6437C168.27 59.7302 168.334 52.3524 166.923 48.5031C164.421 41.6385 160.187 39.6497 153.13 39.9064C153.001 39.9064 152.937 40.0347 152.809 40.163V71.3423ZM201.057 72.048C195.283 72.5612 190.856 70.6365 187.712 66.0174C185.916 63.387 184.697 60.6284 184.312 57.6131C183.991 54.5978 184.89 51.775 186.237 49.1447C187.905 45.7445 190.471 43.05 193.615 40.8045C197.528 38.0459 203.687 37.7893 207.921 40.9328C213.503 45.0388 215.171 47.9257 215.235 55.2394C215.042 58.6396 214.016 62.7455 211.385 66.4023C208.948 69.8667 205.483 71.663 201.057 72.048ZM201.826 70.2516C204.97 69.8025 207.536 68.5194 209.397 66.1457C212.155 62.6172 213.182 58.6396 213.503 54.3412C213.438 53.443 213.374 52.4807 213.246 51.5826C212.604 46.5785 207.921 41.7027 202.853 40.5479C201.891 40.2913 201.185 40.4838 200.543 41.1895C198.298 43.6915 196.181 46.3219 194.705 49.3371C193.679 51.5184 193.166 53.828 193.55 56.2659C193.679 57.0357 193.807 57.8056 194 58.5754C195.026 62.3606 196.694 65.8249 199.004 69.0968C199.709 70.1233 200.543 70.5082 201.826 70.2516ZM197.656 70.3799C197.4 69.9308 197.207 69.6742 197.079 69.4818C195.09 66.5306 193.55 63.3229 192.524 59.9868C191.433 56.5225 191.048 52.994 192.716 49.5937C193.807 47.4125 195.218 45.3595 196.566 43.2424C197.079 42.4084 197.785 41.6385 198.426 40.8045C198.362 40.7404 198.362 40.6762 198.298 40.5479C197.528 40.8045 196.694 40.9328 196.117 41.3819C194.384 42.6009 192.588 43.8198 191.113 45.3595C187.905 48.6314 185.916 52.5449 186.173 57.0999C186.365 61.3982 188.546 64.9268 191.754 67.942C193.23 69.3535 195.218 70.0592 197.656 70.3799ZM260.98 75.2557C261.686 75.7048 262.135 76.4105 261.814 77.3087C261.494 78.1427 260.788 78.6559 259.826 78.5918C259.12 78.4634 258.35 78.271 257.773 77.8861C255.976 76.6671 254.693 74.9349 254.052 72.9461C253.089 70.1233 251.742 64.9909 250.908 62.1681C250.78 61.719 250.651 61.3341 250.587 60.9492C247.444 61.5266 244.557 62.104 241.606 62.553C240.964 62.6813 240.707 63.0021 240.451 63.5795L237.115 71.5347C235.896 74.4858 235.703 74.6142 232.752 73.5235C232.111 73.2669 231.469 73.0744 230.892 72.7537C229.737 72.1763 229.545 71.5347 230.058 70.3158C232.047 65.44 234.1 60.6284 236.088 55.7526C238.141 50.6202 240.13 45.4878 242.119 40.2913C242.696 38.8157 242.825 38.6874 244.364 39.2007C245.647 39.5856 246.866 40.0347 248.021 40.6121C248.47 40.8687 248.919 41.4461 248.983 41.8952C249.433 47.7974 250.651 53.5072 251.999 59.217C252.704 62.2323 253.603 65.2475 254.372 68.2628C254.822 69.8025 256.361 73.2669 258.029 73.7801C259.056 74.1009 260.018 74.6783 260.98 75.2557ZM234.869 72.4329C238.59 62.1039 244.3 52.7373 246.995 42.0235L243.915 40.8045C239.809 51.0052 235.768 61.0775 231.726 71.2139L234.869 72.4329ZM241.862 60.8209C244.685 60.3076 247.38 59.7302 250.074 59.217L247.636 46.7068C245.712 51.3901 243.851 56.0092 241.862 60.8209ZM260.082 77.437C260.788 77.3728 260.788 76.3463 260.275 76.0256C259.633 75.5123 258.799 75.5765 258.029 75.5123C257.901 75.5123 257.388 75.384 257.324 75.5123C257.259 75.6406 257.58 75.8331 258.158 76.4105C258.414 76.6671 258.607 76.9879 258.863 77.1803C259.184 77.3728 259.697 77.5011 260.082 77.437ZM300.631 78.4634C299.22 78.3351 297.937 77.9502 296.718 77.3087C293.831 75.7048 290.431 71.663 288.699 68.6478C287.672 66.8514 286.774 64.9909 285.747 63.2587C285.298 62.3606 284.721 61.5266 284.144 60.6925L283.887 60.7567C283.823 61.2699 283.759 61.719 283.759 62.1681C283.63 65.9532 283.502 64.7343 283.438 68.5194C283.374 69.161 283.374 69.8667 283.31 70.5082C283.181 71.663 282.668 72.3046 281.641 72.3687C280.294 72.497 278.883 72.5612 277.536 72.4329C276.252 72.3687 275.675 71.663 275.611 70.1875C275.226 61.7832 274.713 58.3188 274.905 49.8504C274.969 47.1559 274.777 44.5255 274.777 41.831C274.713 40.2271 274.777 40.163 276.252 39.9705C277.792 39.7139 279.396 39.4573 280.936 39.2648C282.732 39.0724 283.438 39.7781 283.502 41.7669V43.884L284.464 42.9858C286.71 40.6121 289.34 39.2007 292.355 38.7516C297.103 37.9817 300.952 41.1895 301.979 46.6426C303.39 53.8921 299.22 60.6284 292.484 61.9756C291.65 62.1681 290.88 62.2964 290.046 62.2964C289.212 62.2964 288.442 62.1681 287.415 62.104C288.634 64.3494 289.789 66.5948 291.136 68.7119C291.842 69.8667 292.612 70.9573 293.446 71.9838C294.793 73.5235 296.397 74.8708 298.258 75.7048C298.963 76.0256 299.797 76.2822 300.631 76.3463C300.888 76.4105 301.145 76.3463 301.401 76.3463C301.465 76.218 301.594 76.1539 301.658 76.0256L302.813 74.2292C303.198 73.6518 303.582 73.0744 304.096 72.5612C304.609 72.048 305.315 71.8555 306.085 71.9196C307.624 72.048 308.394 73.5877 307.624 74.9991C306.854 76.4105 305.443 77.3728 303.903 77.9502C302.813 78.3993 301.786 78.5276 300.631 78.4634ZM292.484 59.8585C297.616 58.6396 300.824 53.828 300.311 48.2465C299.797 42.5367 296.012 39.6497 291.008 41.1895C288.827 41.831 287.031 43.1783 285.362 44.7821C284.208 45.8728 283.566 47.1559 283.63 48.888V52.2883C283.759 53.6997 283.759 55.0469 283.887 56.4583C283.951 56.8433 284.015 57.3565 284.272 57.549C285.106 58.3188 285.94 59.0887 286.902 59.6019C288.699 60.4359 290.623 60.3076 292.484 59.8585ZM277.6 70.3158H281.385C282.026 58.9604 281.962 52.7373 281.577 41.3819L276.573 42.0876C276.83 53.2506 276.637 59.2811 277.6 70.3158ZM303.647 76.2822C304.994 75.8331 305.828 75.0632 306.405 73.8443C305.186 73.3952 304.481 73.9726 303.647 76.2822ZM332.455 73.3311C327.451 73.2027 324.051 71.0215 321.998 66.9797C321.613 66.1457 321.421 65.1834 321.292 64.2211C321.164 63.772 321.292 63.1946 321.421 62.7455C321.741 61.719 322.768 60.885 323.666 60.9492C324.693 61.0133 325.398 61.6549 325.591 62.6172C325.847 63.5795 325.976 64.6701 325.847 65.6966C325.462 68.8402 326.168 70.4441 329.248 71.2139C331.236 71.7272 333.225 71.663 335.214 71.0856C337.459 70.3799 338.422 68.8402 338.101 66.4665C337.588 63.1946 335.535 61.2058 332.648 59.9227C330.787 59.0245 328.927 58.1905 327.066 57.2282C325.142 56.2017 323.666 54.662 322.511 52.8656C319.624 48.3107 320.972 42.7292 325.591 40.0347C331.108 36.8269 338.165 38.6874 341.309 44.2689C341.822 45.2312 342.079 46.3218 342.399 47.4125C342.592 48.054 342.72 48.7597 341.886 49.0164C341.052 49.273 340.86 48.5031 340.731 47.8616C339.961 43.8198 337.203 41.7027 333.482 40.4196C333.033 40.2271 332.455 40.0988 331.942 40.0347C330.082 39.8422 328.542 41.3819 328.863 43.1783C328.991 44.1406 329.376 45.0388 329.825 45.8728C331.236 48.439 333.354 50.2995 335.92 51.7109C337.973 52.8656 340.026 54.0204 342.014 55.2394C344.003 56.5225 345.479 58.2547 346.441 60.4359C348.366 64.5418 346.762 69.0327 342.656 70.8932C341.18 71.5347 339.577 71.9838 337.973 72.3046C335.984 72.8178 333.867 73.0744 332.455 73.3311ZM339.256 70.3799C340.475 69.8667 341.437 69.5459 342.335 69.0327C345.35 67.3647 346.249 64.2852 344.837 61.1416C343.811 58.8962 342.079 57.2923 339.961 56.0734C337.973 54.8545 335.791 53.8921 333.867 52.5449C329.953 49.8504 326.81 46.6426 327.066 41.3819C324.051 42.5367 322.191 46.0011 322.832 49.0805C323.474 51.9033 325.142 54.0204 327.58 55.4318C329.633 56.6508 331.878 57.549 333.995 58.5754C338.678 60.8209 340.86 65.3758 339.256 70.3799ZM323.923 66.4665C323.923 65.2475 324.628 63.9644 323.666 62.8097C322.704 63.8361 322.768 64.7985 323.923 66.4665ZM376.148 72.8178C375.314 72.8178 374.544 72.8178 373.71 72.7537C372.299 72.6253 371.721 72.048 371.657 70.5724C371.593 68.1987 371.529 65.8891 371.401 63.5154L370.502 45.8086C370.374 44.3972 370.438 42.9858 370.438 41.4461C368.77 41.3819 367.166 41.2536 365.498 41.1895H361.842C361.264 41.1895 360.623 41.1253 360.623 40.2913C360.623 39.5214 361.264 39.3931 361.906 39.3931C364.921 39.4573 367.936 39.5214 370.951 39.5214C376.148 39.4573 381.345 39.3931 386.541 39.2648C386.862 39.2648 387.311 39.2007 387.503 39.3931C387.888 39.6497 388.273 40.0988 388.337 40.5479C388.402 41.1895 387.76 41.1253 387.311 41.1253L378.458 41.3178C378.586 44.2689 378.778 47.0276 378.907 49.7221C379.099 56.2659 379.292 62.7455 379.42 69.2251C379.484 72.6895 378.907 72.7537 376.148 72.8178ZM373.646 70.9573H377.688C377.624 60.9492 377.367 51.1335 376.661 41.2536H372.363C372.106 43.499 373.197 69.4176 373.646 70.9573ZM419.712 72.048C413.938 72.5612 409.512 70.6365 406.368 66.0174C404.572 63.387 403.353 60.6284 402.968 57.6131C402.647 54.5978 403.545 51.775 404.893 49.1447C406.561 45.7445 409.127 43.05 412.27 40.8045C416.184 38.0459 422.343 37.7893 426.577 40.9328C432.158 45.0388 433.826 47.9257 433.891 55.2394C433.698 58.6396 432.672 62.7455 430.041 66.4023C427.603 69.8667 424.139 71.663 419.712 72.048ZM420.482 70.2516C423.626 69.8025 426.192 68.5194 428.053 66.1457C430.811 62.6172 431.838 58.6396 432.158 54.3412C432.094 53.443 432.03 52.4807 431.902 51.5826C431.26 46.5785 426.577 41.7027 421.509 40.5479C420.546 40.2913 419.841 40.4838 419.199 41.1895C416.954 43.6915 414.837 46.3219 413.361 49.3371C412.335 51.5184 411.821 53.828 412.206 56.2659C412.335 57.0357 412.463 57.8056 412.655 58.5754C413.682 62.3606 415.35 65.8249 417.659 69.0968C418.365 70.1233 419.199 70.5082 420.482 70.2516ZM416.312 70.3799C416.056 69.9308 415.863 69.6742 415.735 69.4818C413.746 66.5306 412.206 63.3229 411.18 59.9868C410.089 56.5225 409.704 52.994 411.372 49.5937C412.463 47.4125 413.874 45.3595 415.222 43.2424C415.735 42.4084 416.441 41.6385 417.082 40.8045C417.018 40.7404 417.018 40.6762 416.954 40.5479C416.184 40.8045 415.35 40.9328 414.772 41.3819C413.04 42.6009 411.244 43.8198 409.768 45.3595C406.561 48.6314 404.572 52.5449 404.828 57.0999C405.021 61.3982 407.202 64.9268 410.41 67.942C411.886 69.3535 413.874 70.0592 416.312 70.3799ZM475.915 78.4634C474.504 78.3351 473.221 77.9502 472.002 77.3087C469.115 75.7048 465.715 71.663 463.982 68.6478C462.956 66.8514 462.058 64.9909 461.031 63.2587C460.582 62.3606 460.005 61.5266 459.427 60.6925L459.171 60.7567C459.107 61.2699 459.043 61.719 459.043 62.1681C458.914 65.9532 458.786 64.7343 458.722 68.5194C458.658 69.161 458.658 69.8667 458.593 70.5082C458.465 71.663 457.952 72.3046 456.925 72.3687C455.578 72.497 454.167 72.5612 452.82 72.4329C451.536 72.3687 450.959 71.663 450.895 70.1875C450.51 61.7832 449.997 58.3188 450.189 49.8504C450.253 47.1559 450.061 44.5255 450.061 41.831C449.997 40.2271 450.061 40.163 451.536 39.9705C453.076 39.7139 454.68 39.4573 456.22 39.2648C458.016 39.0724 458.722 39.7781 458.786 41.7669V43.884L459.748 42.9858C461.994 40.6121 464.624 39.2007 467.639 38.7516C472.387 37.9817 476.236 41.1895 477.263 46.6426C478.674 53.8921 474.504 60.6284 467.768 61.9756C466.934 62.1681 466.164 62.2964 465.33 62.2964C464.496 62.2964 463.726 62.1681 462.699 62.104C463.918 64.3494 465.073 66.5948 466.42 68.7119C467.126 69.8667 467.896 70.9573 468.73 71.9838C470.077 73.5235 471.681 74.8708 473.542 75.7048C474.247 76.0256 475.081 76.2822 475.915 76.3463C476.172 76.4105 476.429 76.3463 476.685 76.3463C476.749 76.218 476.878 76.1539 476.942 76.0256L478.097 74.2292C478.481 73.6518 478.866 73.0744 479.38 72.5612C479.893 72.048 480.599 71.8555 481.368 71.9196C482.908 72.048 483.678 73.5877 482.908 74.9991C482.138 76.4105 480.727 77.3728 479.187 77.9502C478.097 78.3993 477.07 78.5276 475.915 78.4634ZM467.768 59.8585C472.9 58.6396 476.108 53.828 475.595 48.2465C475.081 42.5367 471.296 39.6497 466.292 41.1895C464.111 41.831 462.314 43.1783 460.646 44.7821C459.492 45.8728 458.85 47.1559 458.914 48.888V52.2883C459.043 53.6997 459.043 55.0469 459.171 56.4583C459.235 56.8433 459.299 57.3565 459.556 57.549C460.39 58.3188 461.224 59.0887 462.186 59.6019C463.982 60.4359 465.907 60.3076 467.768 59.8585ZM452.884 70.3158H456.669C457.31 58.9604 457.246 52.7373 456.861 41.3819L451.857 42.0876C452.114 53.2506 451.921 59.2811 452.884 70.3158ZM478.931 76.2822C480.278 75.8331 481.112 75.0632 481.689 73.8443C480.47 73.3952 479.765 73.9726 478.931 76.2822ZM501.196 73.2669C499.143 73.3311 498.373 72.7537 498.309 70.6365C498.244 65.3758 498.309 56.7791 498.244 51.5184C498.18 47.7333 497.924 44.718 497.859 40.9328C497.859 39.3931 498.18 39.0082 499.784 38.944C500.811 38.944 501.901 38.8799 502.864 39.1365C505.237 39.6497 507.483 39.329 509.792 39.1365C512.487 38.944 515.245 38.8799 517.94 38.7516C518.453 38.7516 518.966 38.8157 519.416 39.0082C519.672 39.1365 520.057 39.5214 519.993 39.7781C519.993 40.0988 519.608 40.4196 519.287 40.5479C518.838 40.6121 518.325 40.5479 517.812 40.5479L506.007 41.1895C505.943 41.1895 505.879 41.3178 505.751 41.3819C505.943 48.1182 506.328 54.1487 506.585 61.1416L511.396 60.7567C512.294 60.6925 513.192 60.5642 514.155 60.5001C514.796 60.4359 515.502 60.3718 515.63 61.2058C515.695 62.0398 514.989 62.1681 514.347 62.2323L507.419 62.8097C507.226 62.8097 507.034 62.8738 506.713 62.938C506.777 64.4777 506.777 69.2893 506.841 70.8932H513.064C514.732 70.8932 516.4 70.8932 518.068 70.9573C518.646 70.9573 519.223 71.0215 519.223 71.7272C519.223 72.4329 518.646 72.6253 518.068 72.6253L516.079 72.6895C511.075 72.882 506.135 73.0103 501.196 73.2669ZM500.105 71.4064L505.045 70.7649C504.916 68.5836 504.917 63.387 504.852 61.4624C504.596 55.6885 504.339 50.6844 504.147 44.8463C504.082 43.884 504.018 42.8575 503.89 41.8952C503.826 41.5102 503.505 40.997 503.313 40.9328C502.158 40.8045 501.003 40.7404 499.592 40.6762C499.72 46.8992 499.912 58.7037 500.105 71.4064Z" fill="#4A4A4A"/>
</g>
<defs>
<clipPath id="clip0_1_2">
<rect width="520" height="117.549" fill="white"/>
</clipPath>
</defs>
</svg>
